<?xml version="1.0" encoding="UTF-8" standalone="no"?>
<svg
   xmlns:dc="http://purl.org/dc/elements/1.1/"
   xmlns:cc="http://creativecommons.org/ns#"
   xmlns:rdf="http://www.w3.org/1999/02/22-rdf-syntax-ns#"
   xmlns:svg="http://www.w3.org/2000/svg"
   xmlns="http://www.w3.org/2000/svg"
   xmlns:sodipodi="http://sodipodi.sourceforge.net/DTD/sodipodi-0.dtd"
   xmlns:inkscape="http://www.inkscape.org/namespaces/inkscape"
   aria-hidden="true"
   focusable="false"
   data-prefix="fas"
   data-icon="calendar-alt"
   class="svg-inline--fa fa-calendar-alt fa-w-14"
   role="img"
   viewBox="0 0 170.66667 170.66667"
   version="1.1"
   id="svg4"
   sodipodi:docname="favicon.svg"
   width="128pt"
   height="128pt"
   inkscape:version="0.92.4 5da689c313, 2019-01-14">
  <metadata
     id="metadata10">
    <rdf:RDF>
      <cc:Work
         rdf:about="">
        <dc:format>image/svg+xml</dc:format>
        <dc:type
           rdf:resource="http://purl.org/dc/dcmitype/StillImage" />
        <dc:title></dc:title>
      </cc:Work>
    </rdf:RDF>
  </metadata>
  <defs
     id="defs8" />
  <sodipodi:namedview
     pagecolor="#ffffff"
     bordercolor="#666666"
     borderopacity="1"
     objecttolerance="10"
     gridtolerance="10"
     guidetolerance="10"
     inkscape:pageopacity="0"
     inkscape:pageshadow="2"
     inkscape:window-width="1366"
     inkscape:window-height="744"
     id="namedview6"
     showgrid="false"
     units="pt"
     inkscape:zoom="2.6074563"
     inkscape:cx="168.33987"
     inkscape:cy="67.55225"
     inkscape:window-x="0"
     inkscape:window-y="0"
     inkscape:window-maximized="0"
     inkscape:current-layer="svg4" />
  <circle
     style="fill:#06518b;fill-opacity:1;stroke-width:2.43172622"
     id="path1383"
     cx="85.333336"
     cy="85.333328"
     r="85.333336" />
  <path
     d="m 39.548523,127.8478 c 0,5.41651 4.394529,9.81102 9.811033,9.81102 h 71.947554 c 5.4165,0 9.81103,-4.39451 9.81103,-9.81102 V 72.251963 H 39.548523 Z M 104.95539,87.786089 c 0,-1.349015 1.10373,-2.452756 2.45275,-2.452756 h 8.17586 c 1.34902,0 2.45276,1.103741 2.45276,2.452756 v 8.175857 c 0,1.34902 -1.10374,2.452756 -2.45276,2.452756 h -8.17586 c -1.34902,0 -2.45275,-1.103736 -2.45275,-2.452756 z m 0,26.162741 c 0,-1.34901 1.10373,-2.45275 2.45275,-2.45275 h 8.17586 c 1.34902,0 2.45276,1.10374 2.45276,2.45275 v 8.17586 c 0,1.34902 -1.10374,2.45277 -2.45276,2.45277 h -8.17586 c -1.34902,0 -2.45275,-1.10375 -2.45275,-2.45277 z M 78.792644,87.786089 c 0,-1.349015 1.10374,-2.452756 2.452756,-2.452756 h 8.175855 c 1.349026,0 2.452766,1.103741 2.452766,2.452756 v 8.175857 c 0,1.34902 -1.10374,2.452756 -2.452766,2.452756 H 81.2454 c -1.349016,0 -2.452756,-1.103736 -2.452756,-2.452756 z m 0,26.162741 c 0,-1.34901 1.10374,-2.45275 2.452756,-2.45275 h 8.175855 c 1.349026,0 2.452766,1.10374 2.452766,2.45275 v 8.17586 c 0,1.34902 -1.10374,2.45277 -2.452766,2.45277 H 81.2454 c -1.349016,0 -2.452756,-1.10375 -2.452756,-2.45277 z M 52.6299,87.786089 c 0,-1.349015 1.10374,-2.452756 2.452756,-2.452756 h 8.175855 c 1.349015,0 2.452755,1.103741 2.452755,2.452756 v 8.175857 c 0,1.34902 -1.10374,2.452756 -2.452755,2.452756 h -8.175855 c -1.349016,0 -2.452756,-1.103736 -2.452756,-2.452756 z m 0,26.162741 c 0,-1.34901 1.10374,-2.45275 2.452756,-2.45275 h 8.175855 c 1.349015,0 2.452755,1.10374 2.452755,2.45275 v 8.17586 c 0,1.34902 -1.10374,2.45277 -2.452755,2.45277 h -8.175855 c -1.349016,0 -2.452756,-1.10375 -2.452756,-2.45277 z m 68.67721,-67.859622 h -9.81104 v -9.811021 c 0,-1.798687 -1.47166,-3.270345 -3.27034,-3.270345 h -6.54069 c -1.798683,0 -3.270342,1.471658 -3.270342,3.270345 v 9.811021 H 72.251956 v -9.811021 c 0,-1.798687 -1.471658,-3.270345 -3.270345,-3.270345 h -6.540689 c -1.798687,0 -3.270344,1.471658 -3.270344,3.270345 v 9.811021 h -9.811022 c -5.416504,0 -9.811033,4.39453 -9.811033,9.811034 v 9.811033 h 91.569617 v -9.811033 c 0,-5.416504 -4.39453,-9.811034 -9.81103,-9.811034 z"
     id="path2"
     inkscape:connector-curvature="0"
     style="fill:#ffffff;stroke-width:0.20439647" />
</svg>
